<?xml version="1.0" encoding="utf-8"?>
<!-- Monkey Wild Animal Ape Vector SVG Icon - SVG Repo -->
<svg width="800px" height="800px" viewBox="0 0 32 32" xmlns="http://www.w3.org/2000/svg">
  <g id="Monkey">
    <path d="M19.5,13a.5.5,0,0,1-.5-.5.47.47,0,0,1,.18-.37,4.46,4.46,0,0,0,1.32-3.2,1,1,0,1,0-2,0,.5.5,0,0,1-1,0,2,2,0,1,1,4,0A5.58,5.58,0,0,1,19.82,12a.5.5,0,0,1-.32.93Z" style="fill:#4d4d4d"/>
    <path d="M12.5,13a.5.5,0,0,1-.32-.93A5.61,5.61,0,0,1,10.5,8.93a2,2,0,1,1,4,0,.5.5,0,0,1-1,0,1,1,0,1,0-2,0,4.47,4.47,0,0,0,1.32,3.2.47.47,0,0,1,.18.37.5.5,0,0,1-.5.5Z" style="fill:#4d4d4d"/>
    <path d="M16,25a6.51,6.51,0,0,1-6.5-6.5.5.5,0,0,1,1,0,5.5,5.5,0,0,0,11,0,.5.5,0,0,1,1,0A6.51,6.51,0,0,1,16,25Z" style="fill:#4d4d4d"/>
    <path d="M16,29A13,13,0,1,1,29,16,13,13,0,0,1,16,29ZM16,4A12,12,0,1,0,28,16,12,12,0,0,0,16,4Z" style="fill:#4d4d4d"/>
    <path d="M16,25a9,9,0,0,1-9-9,9.26,9.26,0,0,1,1.6-5.16.5.5,0,0,1,.82.57A8.22,8.22,0,0,0,8,16a8,8,0,0,0,16,0,8.22,8.22,0,0,0-1.42-4.59.5.5,0,0,1,.82-.57A9.26,9.26,0,0,1,25,16,9,9,0,0,1,16,25Z" style="fill:#4d4d4d"/>
    <path d="M12.5,14.5A1.5,1.5,0,1,0,14,16,1.5,1.5,0,0,0,12.5,14.5Z" style="fill:#4d4d4d"/>
    <path d="M19.5,14.5A1.5,1.5,0,1,0,21,16,1.5,1.5,0,0,0,19.5,14.5Z" style="fill:#4d4d4d"/>
    <path d="M18.5,20a.47.47,0,0,1-.35-.15,3.2,3.2,0,0,0-4.3,0,.48.48,0,0,1-.7,0,.48.48,0,0,1,0-.7,4.18,4.18,0,0,1,5.7,0,.48.48,0,0,1,0,.7A.47.47,0,0,1,18.5,20Z" style="fill:#4d4d4d"/>
    <path d="M15.5,22a.5.5,0,0,1-.5-.5v-1a.5.5,0,0,1,1,0v1A.5.5,0,0,1,15.5,22Z" style="fill:#4d4d4d"/>
    <path d="M16.5,22a.5.5,0,0,1-.5-.5v-1a.5.5,0,0,1,1,0v1A.5.5,0,0,1,16.5,22Z" style="fill:#4d4d4d"/>
  </g>
</svg>