<?xml version="1.0" encoding="UTF-8"?>
<svg width="120px" height="120px" viewBox="0 0 120 120" version="1.1" xmlns="http://www.w3.org/2000/svg">
  <title>AI Brain</title>
  <g stroke="none" stroke-width="1" fill="none" fill-rule="evenodd">
    <circle fill="#6772E5" cx="60" cy="60" r="60"></circle>
    <g transform="translate(28, 25)">
      <!-- Brain Shape -->
      <path d="M32,10 C45,0 60,5 64,20 C70,18 75,25 64,30 C75,35 70,50 64,48 C60,65 40,70 32,60 C20,70 4,60 5,48 C-2,45 -5,30 5,30 C-5,25 0,18 5,20 C10,5 25,0 32,10 Z" 
        fill="#FFFFFF" stroke="#444444" stroke-width="2"></path>
      
      <!-- Circuit lines -->
      <path d="M16,30 L48,30 M24,20 L40,20 M20,40 L44,40 M16,50 L48,50" 
        stroke="#444444" stroke-width="1"></path>
      
      <!-- Nodes -->
      <circle fill="#FF5555" cx="16" cy="30" r="3"></circle>
      <circle fill="#55FF55" cx="48" cy="30" r="3"></circle>
      <circle fill="#5555FF" cx="24" cy="20" r="3"></circle>
      <circle fill="#FFFF55" cx="40" cy="20" r="3"></circle>
      <circle fill="#FF55FF" cx="20" cy="40" r="3"></circle>
      <circle fill="#55FFFF" cx="44" cy="40" r="3"></circle>
      <circle fill="#FF5555" cx="16" cy="50" r="3"></circle>
      <circle fill="#55FF55" cx="48" cy="50" r="3"></circle>
    </g>
    <!-- Text -->
    <text x="60" y="100" font-family="Arial" font-size="14" text-anchor="middle" fill="#FFFFFF">AI BRAIN</text>
  </g>
</svg>