<?xml version="1.0" encoding="UTF-8"?>
<svg width="120px" height="120px" viewBox="0 0 120 120" version="1.1" xmlns="http://www.w3.org/2000/svg">
  <title>GitHub Icon</title>
  <g stroke="none" stroke-width="1" fill="none" fill-rule="evenodd">
    <path d="M60,10 C32.3,10 10,32.3 10,60 C10,82.1 24.4,100.6 44.3,107.4 C47.3,108 48.4,106.1 48.4,104.5 C48.4,103.1 48.3,98.5 48.3,94.5 C35,97.2 31.7,89.4 31.7,89.4 C29.2,84.1 25.7,82.3 25.7,82.3 C20.8,79.1 26.1,79.2 26.1,79.2 C31.5,79.6 34.5,84.8 34.5,84.8 C39.3,92.1 47.5,89.6 48.6,88.1 C49.1,85 50.7,82.9 52.3,81.7 C41.4,80.5 30,76.3 30,57.3 C30,51.9 32.2,47.5 34.6,44.1 C34,42.6 32.1,37.2 35.1,30.1 C35.1,30.1 39.7,28.5 48.2,35.3 C52.3,33.9 56.7,33.3 61,33.3 C65.3,33.3 69.7,33.9 73.8,35.3 C82.3,28.5 86.9,30.1 86.9,30.1 C89.9,37.2 88,42.6 87.4,44.1 C89.8,47.5 92,51.9 92,57.3 C92,76.4 80.5,80.5 69.6,81.6 C71.6,83.1 73.4,86 73.4,90.4 C73.4,96.7 73.3,102.6 73.3,104.5 C73.3,106.1 74.4,108 77.5,107.4 C97.4,100.6 111.8,82.1 111.8,60 C111.8,32.3 89.5,10 60,10 Z" fill="#181717" fill-rule="nonzero"></path>
  </g>
</svg>