<?xml version="1.0" encoding="UTF-8"?>
<svg width="120px" height="120px" viewBox="0 0 120 120" version="1.1" xmlns="http://www.w3.org/2000/svg">
  <title>JavaScript Icon</title>
  <g stroke="none" stroke-width="1" fill="none" fill-rule="evenodd">
    <rect fill="#F7DF1E" x="0" y="0" width="120" height="120"></rect>
    <path d="M32,88 L41,83 C42.5,86 43.83,88.33 47,88.33 C50.17,88.33 52.17,87.17 52.17,82.5 L52.17,49 L63,49 L63,82.67 C63,94 56.5,99 47.33,99 C39.17,99 34.17,94.5 32,88 Z M67.5,87 L76.5,82.33 C78.5,85.83 81.17,88.33 86,88.33 C90,88.33 92.5,86.5 92.5,83.83 C92.5,80.67 90,79.5 85.67,77.5 L83.33,76.5 C76.33,73.5 71.83,69.67 71.83,61.83 C71.83,54.67 77.33,49.17 85.67,49.17 C91.67,49.17 96,51.33 99.17,57.33 L90.5,62.33 C88.83,59.33 87,58.17 85.67,58.17 C84.33,58.17 83.33,59.17 83.33,60.5 C83.33,62.17 84.33,63.33 88.33,65.17 L90.67,66.17 C99,69.67 103.5,73.33 103.5,81.33 C103.5,90 96.67,95 86.33,95 C76.33,95 70.17,90.5 67.5,87 Z" fill="#000000" fill-rule="nonzero"></path>
  </g>
</svg>