<?xml version="1.0" encoding="UTF-8"?>
<svg width="120px" height="120px" viewBox="0 0 120 120" version="1.1" xmlns="http://www.w3.org/2000/svg">
  <title>Jira Icon</title>
  <g stroke="none" stroke-width="1" fill="none" fill-rule="evenodd">
    <path d="M110.06,54.85 L67.26,12.05 C65.13,9.92 61.67,9.92 59.54,12.05 L51.06,20.53 L74.84,44.31 C77.43,43.16 80.45,43.63 82.6,45.78 C84.77,47.95 85.23,51.02 84.04,53.64 L107.28,76.88 C109.9,75.69 112.97,76.15 115.14,78.32 C118.09,81.27 118.09,86.1 115.14,89.05 C112.19,92 107.36,92 104.41,89.05 C102.1,86.74 101.71,83.41 103.13,80.74 L81.36,58.97 L81.36,94.81 C82.05,95.15 82.68,95.61 83.26,96.19 C86.21,99.14 86.21,103.97 83.26,106.92 C80.31,109.87 75.48,109.87 72.53,106.92 C69.58,103.97 69.58,99.14 72.53,96.19 C73.26,95.46 74.12,94.92 75.04,94.54 L75.04,58.35 C74.12,57.97 73.26,57.44 72.52,56.7 C70.18,54.36 69.82,50.99 71.28,48.3 L47.88,24.91 L12.05,60.74 C9.92,62.87 9.92,66.33 12.05,68.46 L54.85,111.26 C56.97,113.39 60.44,113.39 62.56,111.26 L105.36,68.46 C107.49,66.33 107.49,62.87 105.36,60.74 L110.06,54.85 Z" fill="#2684FF" fill-rule="nonzero"></path>
  </g>
</svg>