<?xml version="1.0" encoding="UTF-8"?>
<svg width="120px" height="120px" viewBox="0 0 120 120" version="1.1" xmlns="http://www.w3.org/2000/svg">
  <title>Node.js Icon</title>
  <g stroke="none" stroke-width="1" fill="none" fill-rule="evenodd">
    <path d="M60,12 C58.175,12 56.35,12.4859 54.771,13.4511 L19.67,33.5468 C16.494,35.485 14.4,38.8784 14.4,42.5 L14.4,82.5 C14.4,86.1216 16.494,89.515 19.67,91.4532 L28.494,96.5402 C32.615,98.5 34.6,98.5 36.723,98.5 C42.919,98.5 46.8,94.3784 46.8,88.0734 L46.8,48.5523 C46.8,47.8 46.2,47.2 45.46,47.2 L41.6,47.2 C40.842,47.2 40.36,47.8 40.36,48.5523 L40.36,88.0734 C40.36,90.9748 37.66,93.4259 33.06,91.4532 L23.89,86.1216 C23.408,85.8757 23.05,85.3248 23.05,82.5 L23.05,42.5 C23.05,42.0925 23.408,41.5416 23.89,41.2957 L58.991,21.2 C59.455,20.9541 60.4,20.9541 60.881,21.2 L95.982,41.2957 C96.446,41.5416 96.95,42.0925 96.95,42.5 L96.95,82.5 C96.95,85.3248 96.446,85.8757 95.982,86.1216 L60.881,106.209 C60.4,106.455 59.455,106.455 58.991,106.209 L50.413,101.127 C50.068,100.9 49.6,100.859 49.255,101.086 C47.075,102.3 46.8,102.3 44.255,101.393 C43.55,101.127 42.4,100.576 44.255,99.5932 L54.771,93.62 C56.35,92.6466 58.175,92.6466 60,92.6466 C61.825,92.6466 63.65,92.6466 65.229,93.62 L100.33,113.716 C102.15,114.689 103.4,116.875 103.4,119.309 L103.4,17.6825 C103.4,15.2489 102.15,13.0623 100.33,12.0882 L65.229,13.4511 C63.65,12.4859 61.825,12 60,12 Z M74.342,60.4623 C62.978,60.4623 60.4,56.3366 60.4,52.9432 C60.4,52.1909 61,51.5909 61.758,51.5909 L65.75,51.5909 C66.45,51.5909 67.05,52.1909 67.05,52.8223 C67.83,55.602 69.628,57.0752 74.342,57.0752 C78.08,57.0752 80.5,55.9709 80.5,53.1695 C80.5,51.4641 79.75,50.2389 70.087,49.2648 C62.15,48.5125 57.2,46.5682 57.2,40.4332 C57.2,34.6652 62.15,31.1509 73.15,31.1509 C85.303,31.1509 89.986,34.665 90.645,41.5375 C90.645,41.9459 90.495,42.3543 90.15,42.7627 C89.805,43.1711 89.4,43.3 88.937,43.3 L84.927,43.3 C84.227,43.3 83.645,42.7 83.645,42.0925 C82.48,38.5784 80.027,36.9939 73.15,36.9939 C65.75,36.9939 64.77,39.3932 64.77,41.2957 C64.77,43.5932 65.93,44.3666 75.127,45.582 C84.226,46.8 88,48.6275 88,54.6429 C88,60.8368 82.685,64.88 74.342,64.88 L74.342,60.4623 Z" fill="#73AA63" fill-rule="nonzero"></path>
  </g>
</svg>