<?xml version="1.0" encoding="UTF-8"?>
<svg width="120px" height="120px" viewBox="0 0 120 120" version="1.1" xmlns="http://www.w3.org/2000/svg">
  <title>Python Icon</title>
  <g stroke="none" stroke-width="1" fill="none" fill-rule="evenodd">
    <circle fill="#4584B6" cx="60" cy="60" r="60"></circle>
    <g transform="translate(30, 30)">
      <!-- Python Logo -->
      <path d="M30,0 C13.5,0 14.4,6.9 14.4,6.9 L14.4,14.4 L30.3,14.4 L30.3,16.5 L9.3,16.5 C9.3,16.5 0,15.3 0,30 C0,44.7 8.1,44.1 8.1,44.1 L13.2,44.1 L13.2,36.6 C13.2,36.6 12.9,28.5 21.3,28.5 L36.9,28.5 C36.9,28.5 45,28.8 45,21 L45,7.5 C45,7.5 46.5,0 30,0 Z" fill="#FFC331"></path>
      <path d="M30,60 C46.5,60 45.6,53.1 45.6,53.1 L45.6,45.6 L29.7,45.6 L29.7,43.5 L50.7,43.5 C50.7,43.5 60,44.7 60,30 C60,15.3 51.9,15.9 51.9,15.9 L46.8,15.9 L46.8,23.4 C46.8,23.4 47.1,31.5 38.7,31.5 L23.1,31.5 C23.1,31.5 15,31.2 15,39 L15,52.5 C15,52.5 13.5,60 30,60 Z" fill="#4584B6"></path>
      
      <!-- Eyes -->
      <circle fill="#FFFFFF" cx="22.5" cy="7.5" r="2.5"></circle>
      <circle fill="#FFFFFF" cx="37.5" cy="52.5" r="2.5"></circle>
    </g>
  </g>
</svg>