<?xml version="1.0" encoding="UTF-8"?>
<svg width="120px" height="120px" viewBox="0 0 120 120" version="1.1" xmlns="http://www.w3.org/2000/svg">
  <title>React Icon</title>
  <g stroke="none" stroke-width="1" fill="none" fill-rule="evenodd">
    <circle fill="#61DAFB" cx="60" cy="60" r="11"></circle>
    <path d="M60,38 C73.9,38 87.1,39.7 97,42.9 C109.1,46.8 116,52.8 116,60 C116,67.6 108.4,74.1 95.2,78.2 C85.7,81.2 73.2,82.5 60,82.5 C46.4,82.5 33.6,81.1 24,78 C11.4,73.9 4,67.3 4,60 C4,52.8 10.9,46.8 23.1,42.9 C33,39.7 46.1,38 60,38 Z" stroke="#61DAFB" stroke-width="3"></path>
    <path d="M47.5,49 C54.5,37.3 62.3,27.8 69.5,22.2 C78.3,15.4 86.2,13.6 90.5,16.2 C95,18.9 96.6,27.6 94.4,39.2 C92.8,47.8 88.8,57.7 83.4,67.5 C77.8,77.6 71.5,86.6 65,92 C55.8,99.1 47.5,100.8 43.1,98.1 C38.8,95.5 37.2,87.7 39,77 C40.5,68.1 44,58.3 47.5,49 Z" stroke="#61DAFB" stroke-width="3"></path>
    <path d="M47.5,71 C40.5,59.3 36.7,48.5 35.3,39.7 C33.5,28.9 35.3,21 39.7,18.3 C44.3,15.5 52.5,17.8 61.8,25.3 C68.5,31 75.2,39.6 80.6,49.5 C86.2,59.7 90.5,69.7 91.8,78.5 C93.7,89.4 91.6,97.5 87.1,100.2 C82.7,103 75.1,101 66.3,94.2 C59.3,88.8 52.4,80.3 47.5,71 Z" stroke="#61DAFB" stroke-width="3"></path>
  </g>
</svg>