<?xml version="1.0" encoding="UTF-8"?>
<svg width="120px" height="120px" viewBox="0 0 120 120" version="1.1" xmlns="http://www.w3.org/2000/svg">
  <title>TypeScript Icon</title>
  <g stroke="none" stroke-width="1" fill="none" fill-rule="evenodd">
    <rect fill="#3178C6" x="0" y="0" width="120" height="120"></rect>
    <path d="M26,69 L26,88 L36,88 L36,96 L17,96 L17,69 L26,69 Z M68,69 L77,69 L77,96 L68,96 L68,88 L59,88 L59,96 L50,96 L50,69 L59,69 L59,80 L68,80 L68,69 Z M93,77 C94.6667,77.8333 96,78.9167 97,80.25 C98,81.5833 98.5,83.9167 98.5,87.25 C98.5,91.0833 97.6667,93.9167 96,95.75 C94.3333,97.5833 91.5,98.5 87.5,98.5 C85.1667,98.5 83.1667,98.0833 81.5,97.25 C79.8333,96.4167 78.6667,95.25 78,93.75 L83.5,90.75 C83.8333,91.5833 84.3333,92.25 85,92.75 C85.6667,93.25 86.5,93.5 87.5,93.5 C89,93.5 90.1667,93.0833 91,92.25 C91.8333,91.4167 92.25,90 92.25,88 C92.25,86.1667 91.8333,84.8333 91,84 C90.1667,83.1667 88.6667,82.75 86.5,82.75 C85.8333,82.75 85,82.8333 84,83 L84,78 C85,78.1667 85.8333,78.25 86.5,78.25 C88.3333,78.25 89.5833,77.9167 90.25,77.25 C90.9167,76.5833 91.25,75.3333 91.25,73.5 C91.25,72 90.9167,70.9167 90.25,70.25 C89.5833,69.5833 88.5833,69.25 87.25,69.25 C86.25,69.25 85.5,69.5 85,70 C84.5,70.5 84.0833,71.1667 83.75,72 L78.5,69.5 C79.1667,67.8333 80.25,66.5 81.75,65.5 C83.25,64.5 85.1667,64 87.5,64 C91,64 93.5833,64.8333 95.25,66.5 C96.9167,68.1667 97.75,70.3333 97.75,73 C97.75,75.6667 96.1667,77.5 93,78.5 L93,77 Z" fill="#FFFFFF" fill-rule="nonzero"></path>
  </g>
</svg>