<?xml version="1.0" encoding="UTF-8" standalone="no"?>
<svg width="256px" height="153px" viewBox="0 0 256 153" version="1.1" xmlns="http://www.w3.org/2000/svg" xmlns:xlink="http://www.w3.org/1999/xlink" preserveAspectRatio="xMidYMid">
	<g>
		<path d="M72.392942,55.4384766 C72.392942,58.7148438 72.7271156,61.2949219 73.3212974,63.1356766 C73.9896648,64.977264 74.8332684,66.9932598 75.9409412,69.1090168 C76.276581,69.7766602 76.4190552,70.4450195 76.4190552,71.0367832 C76.4190552,71.8803867 75.9409412,72.7239903 74.9074039,73.5675938 L70.2520563,76.7682456 C69.5829132,77.2463596 68.9145457,77.4681114 68.317932,77.4681114 C67.5485287,77.4681114 66.7791254,77.0686357 66.0340684,76.3202344 C64.9270794,75.0539234 63.964077,73.7147456 63.1447597,72.3755679 C62.3260749,71.0367832 61.5073902,69.5531793 60.7662709,67.9223571 C54.0668222,77.0686357 45.4156355,81.6110547 34.8114787,81.6110547 C27.4761509,81.6110547 21.6805731,79.5432617 17.4591002,75.408081 C13.2376273,71.2729004 11.1268885,65.8208676 11.1268885,59.0896953 C11.1268885,51.9153926 13.6306216,46.0445801 18.7217187,41.5747559 C23.8134995,37.1042456 30.5893357,34.8698059 39.1039175,34.8698059 C41.7585192,34.8698059 44.4838346,35.0915577 47.3508161,35.4624762 C50.2184815,35.8333946 53.1568606,36.3815722 56.3114388,37.052207 L56.3114388,27.9820645 C56.3114388,20.8823535 54.8777772,15.8390309 52.0104795,12.8761766 C49.0722817,9.9133222 44.0057206,8.43215332 36.7780532,8.43215332 C34.0527377,8.43215332 31.2564162,8.73139648 28.3184244,9.40203125 C25.3815151,10.0726661 22.5852773,10.9154883 19.9280071,11.9738573 C18.6359824,12.5663047 17.7174514,12.9133973 17.1976238,13.0609375 C16.6777963,13.2084777 16.3027566,13.2815137 16.0053843,13.2815137 C15.0472946,13.2815137 14.568957,12.6884277 14.568957,11.5022559 L14.568957,7.37378418 C14.568957,6.48203613 14.7114312,5.81140136 15.0724857,5.33328711 C15.4319736,4.85554199 16.0526199,4.37742773 16.9691374,3.9992998 C19.6245229,2.51849609 22.7784361,1.33107422 26.4416972,0.441935547 C30.1049584,-0.447934571 34.0040687,-0.890820312 38.1411215,-0.890820312 C48.7492777,-0.890820312 56.6350843,1.47899902 61.7743354,6.22119141 C66.9129028,10.9622168 69.4829219,18.0682373 69.4829219,27.5344238 L69.4829219,55.4384766 L72.392942,55.4384766 L72.392942,55.4384766 Z M37.9590261,71.628457 C41.5399986,71.628457 45.2032598,70.8867578 48.9409687,69.4037891 C52.6781109,67.9201855 55.7875634,65.6854297 58.2171315,62.7232617 C59.5835786,60.9555078 60.5408497,59.0369141 61.0932409,56.9694648 C61.6462988,54.9013574 61.9724594,52.4717285 61.9724594,49.6754883 L61.9724594,45.3518066 C59.657605,44.859375 57.2285427,44.4398437 54.7252195,44.1428945 C52.2224639,43.8459453 49.7941855,43.6978281 47.4403093,43.6978281 C41.7585192,43.6978281 37.445581,44.8602539 34.5075055,47.1691406 C31.5688511,49.4786934 30.1049584,52.7688965 30.1049584,57.0651367 C30.1049584,61.1405762 31.155014,64.2500293 33.2551862,66.3912109 C35.3059421,68.5324024 38.2695896,69.6026855 42.1340543,69.6026855 L37.9590261,71.628457 Z M103.543417,77.1701758 C102.3303,77.1701758 101.525109,76.9724609 101.067269,76.5289746 C100.609429,76.0854883 100.200587,75.2418848 99.825456,73.9762598 L82.434342,12.8305957 C82.0585273,11.5405176 81.870666,10.6488574 81.870666,10.1707324 C81.870666,9.01513672 82.4404866,8.43188477 83.5807954,8.43188477 L90.0922445,8.43188477 C91.3589077,8.43188477 92.2281842,8.62933105 92.6854563,9.07308594 C93.1433949,9.51684082 93.5528369,10.3604443 93.879011,11.6254883 L106.397603,65.0894043 L118.176574,11.6254883 C118.455014,10.3124023 118.864683,9.46879883 119.375034,9.07308594 C119.886211,8.62933105 120.803008,8.43188477 121.975358,8.43188477 L127.614885,8.43188477 C128.835176,8.43188477 129.752799,8.62933105 130.263976,9.07308594 C130.774326,9.51684082 131.233823,10.3604443 131.461575,11.6254883 L143.334786,65.6824902 L156.181647,11.6254883 C156.509005,10.3124023 156.96812,9.46879883 157.426787,9.07308594 C157.885453,8.62933105 158.703918,8.43188477 159.969755,8.43188477 L166.077659,8.43188477 C167.219694,8.43188477 167.887866,9.01513672 167.887866,10.1707324 C167.887866,10.6006641 167.838868,11.0456543 167.741699,11.5405176 C167.644529,12.0353809 167.49833,12.6310547 167.268852,13.4266113 L149.47392,73.9762598 C149.098789,75.2418848 148.689121,76.0854883 148.232107,76.5289746 C147.773441,76.9724609 146.968249,77.1701758 145.852481,77.1701758 L139.837427,77.1701758 C138.615484,77.1701758 137.698688,76.9724609 137.188338,76.5289746 C136.676334,76.0854883 136.218494,75.1938281 136.036628,73.9275879 L124.303535,21.4988184 L112.618652,73.8789062 C112.389174,75.1452441 112.009816,76.0369043 111.547723,76.5289746 C111.089057,76.9724609 110.125055,77.1701758 108.951053,77.1701758 L103.543417,77.1701758 L103.543417,77.1701758 Z M210.465013,80.1287598 C206.48854,80.1287598 202.512068,79.5853613 198.581789,78.5003027 C194.651511,77.4145801 191.445904,76.1482422 189.23126,74.6646387 C188.266531,73.9676172 187.593175,73.2223047 187.329551,72.5297363 C187.065927,71.8379395 186.934728,71.097168 186.934728,70.357959 C186.934728,69.1717773 187.413219,68.2305176 188.367948,67.5341602 L191.35741,65.2252734 C191.97807,64.7964062 192.596896,64.5746484 193.216548,64.5746484 C193.933868,64.5746484 194.65251,64.8229883 195.369831,65.3494629 C197.485076,66.8824707 199.698894,68.0687402 202.014035,68.9098145 C204.326622,69.7515918 206.634374,70.1710937 208.986346,70.1710937 C212.578781,70.1710937 215.44105,69.4260254 217.556295,67.9424219 C219.670714,66.4588184 220.779935,64.3910254 220.779935,61.7849121 C220.779935,59.9683594 220.20324,58.3619629 219.05121,56.9745117 C217.900006,55.5877441 215.969302,54.349248 213.246286,53.2598145 L201.96636,48.6201465 C197.72737,46.5778809 194.526084,44.0263184 192.403293,40.9654785 C190.280503,37.9053223 189.168826,34.6289551 189.168826,31.1359277 C189.168826,28.0268555 189.918444,25.2556152 191.419845,22.8259863 C192.921245,20.3975098 194.946491,18.307373 197.484249,16.6522949 C200.024455,14.9965527 202.91776,13.7309277 206.158551,12.8892383 C209.400996,12.046084 212.813444,11.6253711 216.430527,11.6253711 C218.834911,11.6253711 221.146672,11.8224121 223.411469,12.1933305 C225.67894,12.5660156 227.793359,13.1096387 229.763742,13.8324219 C231.733299,14.5559688 233.511232,15.3034668 235.099218,16.1472832 C236.688831,16.9908867 237.933122,17.8344902 238.833665,18.6781816 C239.635503,19.3731543 240.199619,20.1189668 240.533514,20.8609863 C240.863956,21.6053574 241.03085,22.3973633 241.03085,23.2409668 C241.03085,24.3791895 240.55073,25.3184082 239.596827,26.0641328 L236.285706,28.0268555 C235.71159,28.4036816 235.043414,28.5990723 234.37441,28.5990723 C233.608212,28.5990723 232.69384,28.2749707 231.734121,27.5785254 C229.914002,26.2624512 227.998329,25.1969238 226.022409,24.3526367 C224.047315,23.507373 221.477114,23.0875352 218.452919,23.0875352 C215.201301,23.0875352 212.574049,23.7571387 210.60532,25.0970215 C208.636589,26.4361992 207.652724,28.3060059 207.652724,30.9140625 C207.652724,32.3976562 208.0366,33.6633691 208.801145,34.7032715 C209.565691,35.743916 211.016077,36.7073535 213.246286,37.5977148 L224.286978,42.2380371 C228.573886,44.2322461 231.733299,46.7838086 233.750998,49.8939941 C235.768698,53.0034668 236.807412,56.4328613 236.807412,60.1785156 C236.807412,63.3877441 236.057794,66.3024902 234.561557,68.8766113 C233.062611,71.450459 230.988518,73.6397949 228.342126,75.4092285 C225.692279,77.1793457 222.58675,78.5184375 219.02588,79.4087988 C215.51248,79.8879238 212.05243,80.1287598 208.739417,80.1287598 L210.465013,80.1287598 Z M255.998574,152.289551 C227.426502,152.289551 203.990481,147.381914 185.690513,137.472832 C167.390544,127.563213 158.240998,114.52041 158.240998,98.344082 C158.240998,82.3148926 167.390544,69.2724141 185.690513,59.2623535 C203.990481,49.2520098 227.426502,44.5 255.998574,44.5 C284.571472,44.5 308.056491,49.2520098 326.404459,59.2623535 C344.7515,69.2724141 353.900219,82.3148926 353.900219,98.344082 C353.900219,114.52041 344.7515,127.563213 326.404459,137.472832 C308.056491,147.381914 284.571472,152.289551 255.998574,152.289551 Z M255.998574,139.418604 C280.430769,139.418604 299.742932,135.929395 313.934064,128.903877 C328.124369,121.877832 335.219522,111.776816 335.219522,98.344082 C335.219522,85.0592285 328.124369,74.8108887 313.934064,67.7368164 C299.742932,60.6620801 280.430769,57.2210937 255.998574,57.2210937 C231.566379,57.2210937 212.305218,60.7103711 198.113259,67.7368164 C183.923781,74.8117676 176.776628,85.0601074 176.776628,98.344082 C176.776628,111.776816 183.923781,121.877832 198.113259,128.903877 C212.305218,135.929395 231.566379,139.418604 255.998574,139.418604 Z" fill="#252F3E"></path>
		<path d="M221.286926,98.8359375 L206.221911,103.933252 L221.286926,108.744434 L221.286926,115.328936 L198.069845,107.317529 L198.069845,100.402442 L221.286926,91.9646973 L221.286926,98.8359375 Z M224.673829,88.1276855 L231.307723,88.1276855 L231.307723,119.803369 L224.673829,119.803369 L224.673829,88.1276855 Z M237.122932,98.8359375 L237.122932,91.9646973 L260.340013,100.402442 L260.340013,107.317529 L237.122932,115.328936 L237.122932,108.744434 L252.139267,103.933252 L237.122932,98.8359375 Z" fill="#FF9900"></path>
	</g>
</svg>