<?xml version="1.0" encoding="UTF-8"?>
<svg width="256px" height="199px" viewBox="0 0 256 199" version="1.1" xmlns="http://www.w3.org/2000/svg" xmlns:xlink="http://www.w3.org/1999/xlink" preserveAspectRatio="xMidYMid">
    <g>
        <path d="M118.431947,187.698037 C151.322003,181.887937 174.476093,167.184241 196.927025,150.567136 C187.465676,166.290452 174.361878,185.542202 154.747246,198.200279 L118.431947,187.698037 Z M118.431947,187.698037" fill="#0072C6"></path>
        <path d="M128.001166,0 C167.243064,45.698544 189.648193,81.467869 199.42871,115.300957 C206.654584,139.739213 204.123614,166.6687 196.927025,150.567136 C174.476093,167.184241 151.322003,181.887937 118.431947,187.698037 L85.3943557,174.695544 L28.1617836,175.470419 C62.4050642,145.066186 88.2976354,123.137689 107.095094,96.9495622 C60.7120988,96.8142562 23.337574,106.476734 0,133.272873 C17.7103827,86.3805602 57.0207657,52.0988222 106.226935,43.6710488 C81.5202996,58.6440515 70.8608867,75.7646702 68.9885496,86.3554959 C86.3925742,84.8211334 103.235102,83.7380184 128.001166,83.7380184 C128.001166,55.8250141 128.001166,27.9132461 128.001166,0 Z" fill="#0072C6"></path>
    </g>
</svg>