<?xml version="1.0" encoding="utf-8"?><!-- Uploaded to: SVG Repo, www.svgrepo.com, Generator: SVG Repo Mixer Tools -->
<svg width="800px" height="800px" viewBox="0 0 24 24" fill="none" xmlns="http://www.w3.org/2000/svg">
<path d="M12 11.5V22" stroke="#1C274C" stroke-width="1.5" stroke-linecap="round"/>
<path d="M8 18.0006L8 18" stroke="#1C274C" stroke-width="2" stroke-linecap="round"/>
<path d="M16 18.0006L16 18" stroke="#1C274C" stroke-width="2" stroke-linecap="round"/>
<path d="M12 4.5C12 6.433 10.433 8 8.5 8C6.567 8 5 6.433 5 4.5C5 2.567 6.567 1 8.5 1C10.433 1 12 2.567 12 4.5Z" stroke="#1C274C" stroke-width="1.5"/>
<path d="M19 4.5C19 6.433 17.433 8 15.5 8C13.567 8 12 6.433 12 4.5C12 2.567 13.567 1 15.5 1C17.433 1 19 2.567 19 4.5Z" stroke="#1C274C" stroke-width="1.5"/>
<path d="M12 17.5C12 18.8807 9.31371 20 6 20C2.68629 20 0 18.8807 0 17.5C0 16.1193 2.68629 15 6 15C9.31371 15 12 16.1193 12 17.5Z" stroke="#1C274C" stroke-width="1.5"/>
<path d="M24 17.5C24 18.8807 21.3137 20 18 20C14.6863 20 12 18.8807 12 17.5C12 16.1193 14.6863 15 18 15C21.3137 15 24 16.1193 24 17.5Z" stroke="#1C274C" stroke-width="1.5"/>
<path d="M22 11.5C22 13.433 20.433 15 18.5 15C16.567 15 15 13.433 15 11.5C15 9.567 16.567 8 18.5 8C20.433 8 22 9.567 22 11.5Z" stroke="#1C274C" stroke-width="1.5"/>
<path d="M9 11.5C9 13.433 7.433 15 5.5 15C3.567 15 2 13.433 2 11.5C2 9.567 3.567 8 5.5 8C7.433 8 9 9.567 9 11.5Z" stroke="#1C274C" stroke-width="1.5"/>
<path d="M15 11.5C15 13.433 13.433 15 11.5 15C9.567 15 8 13.433 8 11.5C8 9.567 9.567 8 11.5 8C13.433 8 15 9.567 15 11.5Z" stroke="#1C274C" stroke-width="1.5"/>
</svg>