<?xml version="1.0" encoding="utf-8"?><!-- Uploaded to: SVG Repo, www.svgrepo.com, Generator: SVG Repo Mixer Tools -->
<svg width="800px" height="800px" viewBox="0 0 24 24" fill="none" xmlns="http://www.w3.org/2000/svg">
<path d="M10 3H8C6.11438 3 5.17157 3 4.58579 3.58579C4 4.17157 4 5.11438 4 7V10M4 10V16C4 17.8856 4 18.8284 4.58579 19.4142C5.17157 20 6.11438 20 8 20H14C15.8856 20 16.8284 20 17.4142 19.4142C18 18.8284 18 17.8856 18 16V14M4 10H7M22 9V11C22 12.8856 22 13.8284 21.4142 14.4142C20.8284 15 19.8856 15 18 15H14C12.1144 15 11.1716 15 10.5858 14.4142C10 13.8284 10 12.8856 10 11V7C10 5.11438 10 4.17157 10.5858 3.58579C11.1716 3 12.1144 3 14 3H16C17.8856 3 18.8284 3 19.4142 3.58579C20 4.17157 20 5.11438 20 7L20 10" stroke="#000000" stroke-width="1.5" stroke-linecap="round" stroke-linejoin="round"/>
</svg>