<?xml version="1.0" encoding="utf-8"?><!-- Uploaded to: SVG Repo, www.svgrepo.com, Generator: SVG Repo Mixer Tools -->
<svg width="800px" height="800px" viewBox="0 0 24 24" fill="none" xmlns="http://www.w3.org/2000/svg">
<path fill-rule="evenodd" clip-rule="evenodd" d="M9.87759 3.78198C10.0159 3.90417 10.0159 4.10453 9.87759 4.22671L7.60463 6.25001H20.0312C20.2071 6.25001 20.3496 6.39247 20.3496 6.56835C20.3496 6.74423 20.2071 6.88668 20.0312 6.88668H7.60463L9.87759 8.90999C10.0159 9.03217 10.0159 9.23254 9.87759 9.35472C9.73929 9.4769 9.52839 9.4769 9.39008 9.35472L6.45133 6.78907C6.38167 6.72791 6.33984 6.64974 6.33984 6.56835C6.33984 6.48696 6.38167 6.40879 6.45133 6.34763L9.39008 3.78198C9.52839 3.6598 9.73929 3.6598 9.87759 3.78198Z" fill="#1C274C"/>
<path fill-rule="evenodd" clip-rule="evenodd" d="M14.6276 14.6487C14.4893 14.5265 14.4893 14.3262 14.6276 14.204L16.9006 12.1807H4.47404C4.29814 12.1807 4.15567 12.0382 4.15567 11.8623C4.15567 11.6865 4.29814 11.544 4.47404 11.544H16.9006L14.6276 9.52069C14.4893 9.39851 14.4893 9.19815 14.6276 9.07597C14.7659 8.95379 14.9768 8.95379 15.1151 9.07597L18.0539 11.6416C18.1236 11.7028 18.1654 11.7809 18.1654 11.8623C18.1654 11.9437 18.1236 12.0219 18.0539 12.083L15.1151 14.6487C14.9768 14.7709 14.7659 14.7709 14.6276 14.6487Z" fill="#1C274C"/>
<path fill-rule="evenodd" clip-rule="evenodd" d="M9.87759 14.6487C10.0159 14.7709 10.0159 14.9713 9.87759 15.0934L7.60463 17.1167H20.0312C20.2071 17.1167 20.3496 17.2592 20.3496 17.4351C20.3496 17.6109 20.2071 17.7534 20.0312 17.7534H7.60463L9.87759 19.7767C10.0159 19.8989 10.0159 20.0992 9.87759 20.2214C9.73929 20.3436 9.52839 20.3436 9.39008 20.2214L6.45133 17.6557C6.38167 17.5946 6.33984 17.5164 6.33984 17.4351C6.33984 17.3537 6.38167 17.2755 6.45133 17.2143L9.39008 14.6487C9.52839 14.5265 9.73929 14.5265 9.87759 14.6487Z" fill="#1C274C"/>
</svg>