<?xml version="1.0" encoding="utf-8"?><!-- Uploaded to: SVG Repo, www.svgrepo.com, Generator: SVG Repo Mixer Tools -->
<svg width="800px" height="800px" viewBox="0 0 24 24" fill="none" xmlns="http://www.w3.org/2000/svg">
<path d="M12 7.5C12 6.88 12 6.57 11.818 6.385C11.636 6.2 11.328 6.2 10.712 6.2H5.788C5.172 6.2 4.864 6.2 4.682 6.385C4.5 6.57 4.5 6.88 4.5 7.5C4.5 8.12 4.5 8.43 4.682 8.615C4.864 8.8 5.172 8.8 5.788 8.8H10.712C11.328 8.8 11.636 8.8 11.818 8.615C12 8.43 12 8.12 12 7.5Z" stroke="#000000" stroke-width="1.5"/>
<path d="M12 16.5C12 15.88 12 15.57 11.818 15.385C11.636 15.2 11.328 15.2 10.712 15.2H5.788C5.172 15.2 4.864 15.2 4.682 15.385C4.5 15.57 4.5 15.88 4.5 16.5C4.5 17.12 4.5 17.43 4.682 17.615C4.864 17.8 5.172 17.8 5.788 17.8H10.712C11.328 17.8 11.636 17.8 11.818 17.615C12 17.43 12 17.12 12 16.5Z" stroke="#000000" stroke-width="1.5"/>
<path d="M19.5 16.5C19.5 15.88 19.5 15.57 19.318 15.385C19.136 15.2 18.828 15.2 18.212 15.2H16.288C15.672 15.2 15.364 15.2 15.182 15.385C15 15.57 15 15.88 15 16.5C15 17.12 15 17.43 15.182 17.615C15.364 17.8 15.672 17.8 16.288 17.8H18.212C18.828 17.8 19.136 17.8 19.318 17.615C19.5 17.43 19.5 17.12 19.5 16.5Z" stroke="#000000" stroke-width="1.5"/>
<path d="M19.5 7.5C19.5 6.88 19.5 6.57 19.318 6.385C19.136 6.2 18.828 6.2 18.212 6.2H16.288C15.672 6.2 15.364 6.2 15.182 6.385C15 6.57 15 6.88 15 7.5C15 8.12 15 8.43 15.182 8.615C15.364 8.8 15.672 8.8 16.288 8.8H18.212C18.828 8.8 19.136 8.8 19.318 8.615C19.5 8.43 19.5 8.12 19.5 7.5Z" stroke="#000000" stroke-width="1.5"/>
<path d="M20.5 4.5V19.5C20.5 20.0523 20.0523 20.5 19.5 20.5H4.5C3.94772 20.5 3.5 20.0523 3.5 19.5V4.5C3.5 3.94772 3.94772 3.5 4.5 3.5H19.5C20.0523 3.5 20.5 3.94772 20.5 4.5Z" stroke="#000000" stroke-width="1.5"/>
</svg>