<?xml version="1.0" encoding="utf-8"?><!-- Uploaded to: SVG Repo, www.svgrepo.com, Generator: SVG Repo Mixer Tools -->
<svg fill="#000000" width="800px" height="800px" viewBox="0 0 32 32" xmlns="http://www.w3.org/2000/svg">
  <path d="M29.5 9c0-.3-.2-.6-.4-.8l-5.1-4c-.2-.2-.5-.2-.8-.2H16c-1.1 0-2 .9-2 2v6c0 1.1.9 2 2 2h11c1.1 0 2-.9 2-2V9zm-14.5 3V6c0-.6.4-1 1-1h6.9L28 8.5V12c0 .6-.4 1-1 1H16c-.6 0-1-.4-1-1zm12.5 6H16c-1.1 0-2 .9-2 2v6c0 1.1.9 2 2 2h11c1.1 0 2-.9 2-2v-6c0-1.1-.9-2-2-2zm0 8h-11c-.6 0-1-.4-1-1v-6c0-.6.4-1 1-1h11c.6 0 1 .4 1 1v6c0 .6-.4 1-1 1zM5 18c0 .3.2.6.4.8l5.1 4c.2.2.5.2.8.2H13c.6 0 1-.4 1-1V18c0-.6-.4-1-1-1h-1.5v-2H13c.6 0 1-.4 1-1V6c0-.6-.4-1-1-1h-1.7c-.3 0-.6.1-.8.2l-5.1 4c-.2.2-.4.5-.4.8v6c0 .3.2.6.4.8.2.2.5.2.8.2H7V17c-1.1 0-2 .5-2 1zm2-11.5L11.1 6H12v2h-1.9L7 6.5v5L10.1 10H12v2h-1.9L7 13.5V12c-.3 0-.5-.1-.7-.3-.1-.1-.3-.3-.3-.5v-4.9c0-.1.1-.1.1-.2.1-.1.2-.1.3-.1.1 0 .3 0 .4.1.1.1.2.2.2.4zM12 22v-4h-1.9L7 19.5v4l3.1-1.5H12z"/>
</svg>