<?xml version="1.0" encoding="UTF-8"?>
<!DOCTYPE svg PUBLIC "-//W3C//DTD SVG 1.1//EN" "http://www.w3.org/Graphics/SVG/1.1/DTD/svg11.dtd">
<svg xmlns="http://www.w3.org/2000/svg" version="1.1" width="304px" height="281px" style="shape-rendering:geometricPrecision; text-rendering:geometricPrecision; image-rendering:optimizeQuality; fill-rule:evenodd; clip-rule:evenodd" xmlns:xlink="http://www.w3.org/1999/xlink">
<g><path style="opacity:1" fill="#7e7e7e" d="M 172.5,29.5 C 174.607,28.5318 176.941,28.1984 179.5,28.5C 179.5,41.8333 179.5,55.1667 179.5,68.5C 178.5,68.5 177.5,68.5 176.5,68.5C 176.5,55.5 176.5,42.5 176.5,29.5C 175.167,29.5 173.833,29.5 172.5,29.5 Z"/></g>
<g><path style="opacity:1" fill="#6e6e6e" d="M 172.5,29.5 C 173.833,29.5 175.167,29.5 176.5,29.5C 176.5,42.5 176.5,55.5 176.5,68.5C 175.5,68.5 174.5,68.5 173.5,68.5C 172.508,68.6716 171.842,68.3382 171.5,67.5C 172.658,58.3425 172.824,49.0092 172,39.5C 172.053,36.3248 171.22,33.6581 169.5,31.5C 169.973,30.0937 170.973,29.427 172.5,29.5 Z"/></g>
<g><path style="opacity:1" fill="#8e8e8e" d="M 179.5,28.5 C 180.167,28.5 180.833,28.5 181.5,28.5C 182.464,41.7841 182.797,55.1175 182.5,68.5C 179.5,69.8333 176.5,69.8333 173.5,68.5C 174.5,68.5 175.5,68.5 176.5,68.5C 177.5,68.5 178.5,68.5 179.5,68.5C 179.5,55.1667 179.5,41.8333 179.5,28.5 Z"/></g>
<g><path style="opacity:1" fill="#999999" d="M 181.5,28.5 C 182.609,28.5569 183.609,28.8902 184.5,29.5C 185.46,41.7834 185.794,54.1167 185.5,66.5C 185.027,67.9063 184.027,68.573 182.5,68.5C 182.797,55.1175 182.464,41.7841 181.5,28.5 Z"/></g>
<g><path style="opacity:1" fill="#5b5b5b" d="M 169.5,31.5 C 171.22,33.6581 172.053,36.3248 172,39.5C 172.824,49.0092 172.658,58.3425 171.5,67.5C 171.027,66.0937 170.027,65.427 168.5,65.5C 167.89,64.609 167.557,63.609 167.5,62.5C 166.167,53.1667 166.167,43.8333 167.5,34.5C 167.427,32.9731 168.094,31.9731 169.5,31.5 Z"/></g>
<g><path style="opacity:1" fill="#aeaeae" d="M 184.5,29.5 C 186.708,30.8936 188.208,32.8936 189,35.5C 189.667,44.5 189.667,53.5 189,62.5C 188.34,64.3237 187.173,65.657 185.5,66.5C 185.794,54.1167 185.46,41.7834 184.5,29.5 Z"/></g>
<g><path style="opacity:1" fill="#8b8b8b" d="M 167.5,34.5 C 166.167,43.8333 166.167,53.1667 167.5,62.5C 166.596,61.791 166.263,60.791 166.5,59.5C 163.794,59.6878 161.461,60.6878 159.5,62.5C 159.719,61.325 159.386,60.325 158.5,59.5C 153.039,56.5713 147.373,54.2379 141.5,52.5C 142.543,49.9438 144.21,47.7772 146.5,46C 152.252,41.9577 158.585,39.291 165.5,38C 166.085,36.6976 166.751,35.531 167.5,34.5 Z"/></g>
<g><path style="opacity:1" fill="#797979" d="M 141.5,52.5 C 147.373,54.2379 153.039,56.5713 158.5,59.5C 159.386,60.325 159.719,61.325 159.5,62.5C 156.537,66.0779 154.537,70.0779 153.5,74.5C 153.67,73.1779 153.337,72.0113 152.5,71C 147.379,68.3558 142.212,65.8558 137,63.5C 136.066,64.8584 135.232,66.1917 134.5,67.5C 134.976,61.5518 137.309,56.5518 141.5,52.5 Z"/></g>
<g><path style="opacity:1" fill="#696969" d="M 153.5,74.5 C 153.5,78.1667 153.5,81.8333 153.5,85.5C 152.799,82.4371 152.132,79.2704 151.5,76C 146.287,73.2267 140.954,70.7267 135.5,68.5C 134.824,69.6016 134.158,70.6016 133.5,71.5C 133.232,69.901 133.566,68.5676 134.5,67.5C 135.232,66.1917 136.066,64.8584 137,63.5C 142.212,65.8558 147.379,68.3558 152.5,71C 153.337,72.0113 153.67,73.1779 153.5,74.5 Z"/></g>
<g><path style="opacity:1" fill="#adadad" d="M 168.5,65.5 C 170.027,65.427 171.027,66.0937 171.5,67.5C 169.973,67.573 168.973,66.9063 168.5,65.5 Z"/></g>
<g><path style="opacity:1" fill="#585858" d="M 153.5,85.5 C 153.5,87.1667 153.5,88.8333 153.5,90.5C 146.833,90.5 140.167,90.5 133.5,90.5C 132.711,84.1327 132.711,77.7994 133.5,71.5C 134.158,70.6016 134.824,69.6016 135.5,68.5C 140.954,70.7267 146.287,73.2267 151.5,76C 152.132,79.2704 152.799,82.4371 153.5,85.5 Z"/></g>
<g><path style="opacity:1" fill="#c0c0c0" d="M 133.5,90.5 C 140.167,90.5 146.833,90.5 153.5,90.5C 160.841,90.3337 168.174,90.5003 175.5,91C 178.684,91.7542 181.351,93.2542 183.5,95.5C 156.211,94.5172 128.878,94.1839 101.5,94.5C 102.975,92.5905 104.975,91.4238 107.5,91C 116.16,90.5002 124.827,90.3336 133.5,90.5 Z"/></g>
<g><path style="opacity:1" fill="#b8b8b8" d="M 101.5,94.5 C 128.878,94.1839 156.211,94.5172 183.5,95.5C 184.89,96.8993 185.89,98.5659 186.5,100.5C 156.426,100.175 126.426,100.508 96.5,101.5C 97.0102,98.3257 98.6769,95.9923 101.5,94.5 Z"/></g>
<g><path style="opacity:1" fill="#898989" d="M 47.5,104.5 C 40.8028,103.202 34.1362,103.202 27.5,104.5C 29.1096,99.5954 32.6096,97.2621 38,97.5C 43.2921,97.0541 46.4588,99.3874 47.5,104.5 Z"/></g>
<g><path style="opacity:1" fill="#b0b0b0" d="M 186.5,100.5 C 187.268,101.263 187.768,102.263 188,103.5C 188.498,106.817 188.665,110.15 188.5,113.5C 194.69,113.177 200.69,113.51 206.5,114.5C 202.167,114.5 197.833,114.5 193.5,114.5C 191.833,114.5 190.167,114.5 188.5,114.5C 188.5,118.167 188.5,121.833 188.5,125.5C 188.5,130.167 188.5,134.833 188.5,139.5C 188.5,144.833 188.5,150.167 188.5,155.5C 188.5,162.167 188.5,168.833 188.5,175.5C 187.662,175.158 187.328,174.492 187.5,173.5C 187.5,165.833 187.5,158.167 187.5,150.5C 187.5,143.833 187.5,137.167 187.5,130.5C 187.5,126.167 187.5,121.833 187.5,117.5C 187.5,116.167 187.5,114.833 187.5,113.5C 187.5,110.833 187.5,108.167 187.5,105.5C 156.833,105.5 126.167,105.5 95.5,105.5C 95.2322,103.901 95.5655,102.568 96.5,101.5C 126.426,100.508 156.426,100.175 186.5,100.5 Z"/></g>
<g><path style="opacity:1" fill="#818181" d="M 47.5,104.5 C 48.2634,109.614 47.9301,114.614 46.5,119.5C 46.5,117.167 46.5,114.833 46.5,112.5C 40.5,112.5 34.5,112.5 28.5,112.5C 28.5,115.167 28.5,117.833 28.5,120.5C 27.5875,116.516 26.9208,112.349 26.5,108C 26.5143,106.615 26.8476,105.449 27.5,104.5C 34.1362,103.202 40.8028,103.202 47.5,104.5 Z"/></g>
<g><path style="opacity:1" fill="#a9a9a9" d="M 95.5,105.5 C 126.167,105.5 156.833,105.5 187.5,105.5C 187.5,108.167 187.5,110.833 187.5,113.5C 156.833,113.5 126.167,113.5 95.5,113.5C 95.5,110.833 95.5,108.167 95.5,105.5 Z"/></g>
<g><path style="opacity:1" fill="#e9e9e9" d="M 95.5,113.5 C 126.167,113.5 156.833,113.5 187.5,113.5C 187.5,114.833 187.5,116.167 187.5,117.5C 141.16,120.786 94.8268,124.12 48.5,127.5C 51.0111,119.5 56.5111,114.834 65,113.5C 74.9571,113.549 85.1238,113.549 95.5,113.5 Z"/></g>
<g><path style="opacity:1" fill="#747474" d="M 193.5,114.5 C 213.923,129.557 234.59,144.39 255.5,159C 256.163,160.518 257.163,161.685 258.5,162.5C 260.458,168.335 261.791,174.335 262.5,180.5C 261.492,177.972 259.826,175.805 257.5,174C 234.471,157.824 211.471,141.657 188.5,125.5C 188.5,121.833 188.5,118.167 188.5,114.5C 190.167,114.5 191.833,114.5 193.5,114.5 Z"/></g>
<g><path style="opacity:1" fill="#7b7b7b" d="M 193.5,114.5 C 197.833,114.5 202.167,114.5 206.5,114.5C 209.988,114.54 213.321,115.207 216.5,116.5C 216.414,117.496 216.748,118.329 217.5,119C 226.465,125.812 235.798,131.979 245.5,137.5C 251.645,144.787 255.978,153.12 258.5,162.5C 257.163,161.685 256.163,160.518 255.5,159C 234.59,144.39 213.923,129.557 193.5,114.5 Z"/></g>
<g><path style="opacity:1" fill="#6b6b6b" d="M 46.5,119.5 C 46.5797,122.781 45.913,125.781 44.5,128.5C 42.6028,127.195 40.2695,126.529 37.5,126.5C 34.7305,126.529 32.3972,127.195 30.5,128.5C 28.9605,126.162 28.2938,123.495 28.5,120.5C 28.5,117.833 28.5,115.167 28.5,112.5C 34.5,112.5 40.5,112.5 46.5,112.5C 46.5,114.833 46.5,117.167 46.5,119.5 Z"/></g>
<g><path style="opacity:1" fill="#e2e2e2" d="M 187.5,117.5 C 187.5,121.833 187.5,126.167 187.5,130.5C 180.167,130.833 172.833,131.167 165.5,131.5C 164.527,131.013 163.527,130.513 162.5,130C 154.833,129.333 147.167,129.333 139.5,130C 137.677,130.997 136.01,132.164 134.5,133.5C 127.204,134.355 119.871,135.022 112.5,135.5C 110.931,132.772 108.598,130.938 105.5,130C 100.511,129.501 95.5111,129.334 90.5,129.5C 85.2737,128.465 81.2737,130.132 78.5,134.5C 77.0687,135.78 76.4021,137.447 76.5,139.5C 75.5269,141.948 75.1936,144.615 75.5,147.5C 66.2016,148.476 56.8683,149.142 47.5,149.5C 47.8195,144.637 47.4861,139.97 46.5,135.5C 44.901,135.768 43.5676,135.434 42.5,134.5C 42.3284,133.508 42.6618,132.842 43.5,132.5C 43.8212,134.048 44.8212,134.715 46.5,134.5C 46.7215,131.933 47.3882,129.599 48.5,127.5C 94.8268,124.12 141.16,120.786 187.5,117.5 Z"/></g>
<g><path style="opacity:1" fill="#8b8b8b" d="M 216.5,116.5 C 228.735,120.084 238.401,127.084 245.5,137.5C 235.798,131.979 226.465,125.812 217.5,119C 216.748,118.329 216.414,117.496 216.5,116.5 Z"/></g>
<g><path style="opacity:1" fill="#6d6d6d" d="M 188.5,125.5 C 211.471,141.657 234.471,157.824 257.5,174C 259.826,175.805 261.492,177.972 262.5,180.5C 263.162,184.466 263.495,188.466 263.5,192.5C 238.759,174.42 213.759,156.753 188.5,139.5C 188.5,134.833 188.5,130.167 188.5,125.5 Z"/></g>
<g><path style="opacity:1" fill="#818181" d="M 90.5,129.5 C 95.5111,129.334 100.511,129.501 105.5,130C 108.598,130.938 110.931,132.772 112.5,135.5C 113.392,140.438 113.726,145.438 113.5,150.5C 112.776,148.782 112.109,146.948 111.5,145C 104.317,139.97 97.3173,134.803 90.5,129.5 Z"/></g>
<g><path style="opacity:1" fill="#5d5d5d" d="M 44.5,128.5 C 44.5674,129.959 44.2341,131.292 43.5,132.5C 42.6618,132.842 42.3284,133.508 42.5,134.5C 40.5853,134.216 38.9187,134.549 37.5,135.5C 35.8333,135.5 34.1667,135.5 32.5,135.5C 31.0605,133.412 30.3939,131.079 30.5,128.5C 32.3972,127.195 34.7305,126.529 37.5,126.5C 40.2695,126.529 42.6028,127.195 44.5,128.5 Z"/></g>
<g><path style="opacity:1" fill="#757575" d="M 90.5,129.5 C 97.3173,134.803 104.317,139.97 111.5,145C 112.109,146.948 112.776,148.782 113.5,150.5C 113.5,152.167 113.5,153.833 113.5,155.5C 113.167,156.167 112.833,156.833 112.5,157.5C 101.167,149.833 89.8333,142.167 78.5,134.5C 81.2737,130.132 85.2737,128.465 90.5,129.5 Z"/></g>
<g><path style="opacity:1" fill="#dbdbdb" d="M 187.5,130.5 C 187.5,137.167 187.5,143.833 187.5,150.5C 181.804,150.447 176.138,150.78 170.5,151.5C 170.817,147.298 170.483,143.298 169.5,139.5C 169.224,136.281 167.891,133.615 165.5,131.5C 172.833,131.167 180.167,130.833 187.5,130.5 Z"/></g>
<g><path style="opacity:1" fill="#787878" d="M 165.5,131.5 C 167.891,133.615 169.224,136.281 169.5,139.5C 169.823,145.69 169.49,151.69 168.5,157.5C 157.149,149.808 145.815,142.141 134.5,134.5C 134.5,134.167 134.5,133.833 134.5,133.5C 136.01,132.164 137.677,130.997 139.5,130C 147.167,129.333 154.833,129.333 162.5,130C 163.527,130.513 164.527,131.013 165.5,131.5 Z"/></g>
<g><path style="opacity:1" fill="#818181" d="M 37.5,135.5 C 38.8333,135.5 40.1667,135.5 41.5,135.5C 40.142,142.93 38.4753,150.263 36.5,157.5C 35.5,158.167 34.5,158.833 33.5,159.5C 32.8761,159.083 32.5427,158.416 32.5,157.5C 34.1705,150.153 35.8372,142.819 37.5,135.5 Z"/></g>
<g><path style="opacity:1" fill="#707070" d="M 37.5,135.5 C 38.9187,134.549 40.5853,134.216 42.5,134.5C 43.5676,135.434 44.901,135.768 46.5,135.5C 46.5,144.167 46.5,152.833 46.5,161.5C 46.1667,161.5 45.8333,161.5 45.5,161.5C 44.209,161.263 43.209,161.596 42.5,162.5C 41.7444,159.416 39.7444,157.749 36.5,157.5C 38.4753,150.263 40.142,142.93 41.5,135.5C 40.1667,135.5 38.8333,135.5 37.5,135.5 Z"/></g>
<g><path style="opacity:1" fill="#949494" d="M 32.5,135.5 C 34.1667,135.5 35.8333,135.5 37.5,135.5C 35.8372,142.819 34.1705,150.153 32.5,157.5C 32.5427,158.416 32.8761,159.083 33.5,159.5C 33.6716,160.492 33.3382,161.158 32.5,161.5C 31.1667,160.167 29.8333,158.833 28.5,157.5C 27.7701,150.147 29.1035,143.147 32.5,136.5C 32.5,136.167 32.5,135.833 32.5,135.5 Z"/></g>
<g><path style="opacity:1" fill="#696969" d="M 78.5,134.5 C 89.8333,142.167 101.167,149.833 112.5,157.5C 111.401,162.228 108.401,164.895 103.5,165.5C 94.7163,158.601 85.7163,151.935 76.5,145.5C 76.5,143.5 76.5,141.5 76.5,139.5C 76.4021,137.447 77.0687,135.78 78.5,134.5 Z"/></g>
<g><path style="opacity:1" fill="#696969" d="M 134.5,134.5 C 145.815,142.141 157.149,149.808 168.5,157.5C 167.425,162.237 164.425,164.904 159.5,165.5C 150.716,158.601 141.716,151.935 132.5,145.5C 132.01,141.513 132.676,137.846 134.5,134.5 Z"/></g>
<g><path style="opacity:1" fill="#666666" d="M 188.5,139.5 C 213.759,156.753 238.759,174.42 263.5,192.5C 263.5,194.5 263.5,196.5 263.5,198.5C 258.5,198.5 253.5,198.5 248.5,198.5C 243.257,193.866 237.59,189.699 231.5,186C 230.663,184.989 230.33,183.822 230.5,182.5C 228.345,182.628 226.345,182.128 224.5,181C 212.646,172.245 200.646,163.745 188.5,155.5C 188.5,150.167 188.5,144.833 188.5,139.5 Z"/></g>
<g><path style="opacity:1" fill="#ababab" d="M 32.5,136.5 C 29.1035,143.147 27.7701,150.147 28.5,157.5C 23.8782,154.446 22.3782,150.112 24,144.5C 25.4129,140.252 28.2462,137.585 32.5,136.5 Z"/></g>
<g><path style="opacity:1" fill="#d9d9d9" d="M 134.5,133.5 C 134.5,133.833 134.5,134.167 134.5,134.5C 132.676,137.846 132.01,141.513 132.5,145.5C 132.5,148.5 132.5,151.5 132.5,154.5C 126.137,154.407 119.804,154.74 113.5,155.5C 113.5,153.833 113.5,152.167 113.5,150.5C 113.726,145.438 113.392,140.438 112.5,135.5C 119.871,135.022 127.204,134.355 134.5,133.5 Z"/></g>
<g><path style="opacity:1" fill="#5d5d5d" d="M 76.5,145.5 C 85.7163,151.935 94.7163,158.601 103.5,165.5C 96.0528,165.929 88.7194,165.429 81.5,164C 79.1898,162.363 77.6898,160.196 77,157.5C 76.5012,153.514 76.3345,149.514 76.5,145.5 Z"/></g>
<g><path style="opacity:1" fill="#5d5d5d" d="M 132.5,145.5 C 141.716,151.935 150.716,158.601 159.5,165.5C 152.412,165.795 145.412,165.462 138.5,164.5C 134.982,162.139 132.982,158.805 132.5,154.5C 132.5,151.5 132.5,148.5 132.5,145.5 Z"/></g>
<g><path style="opacity:1" fill="#d0d0d0" d="M 46.5,135.5 C 47.4861,139.97 47.8195,144.637 47.5,149.5C 56.8683,149.142 66.2016,148.476 75.5,147.5C 75.1936,144.615 75.5269,141.948 76.5,139.5C 76.5,141.5 76.5,143.5 76.5,145.5C 76.3345,149.514 76.5012,153.514 77,157.5C 77.6898,160.196 79.1898,162.363 81.5,164C 88.7194,165.429 96.0528,165.929 103.5,165.5C 108.401,164.895 111.401,162.228 112.5,157.5C 112.833,156.833 113.167,156.167 113.5,155.5C 119.804,154.74 126.137,154.407 132.5,154.5C 132.982,158.805 134.982,162.139 138.5,164.5C 109.682,167.034 80.682,169.2 51.5,171C 50.5842,171.278 49.9175,171.778 49.5,172.5C 47.4318,169.237 46.4318,165.57 46.5,161.5C 46.5,152.833 46.5,144.167 46.5,135.5 Z"/></g>
<g><path style="opacity:1" fill="#5d5d5d" d="M 188.5,155.5 C 200.646,163.745 212.646,172.245 224.5,181C 226.345,182.128 228.345,182.628 230.5,182.5C 230.33,183.822 230.663,184.989 231.5,186C 237.59,189.699 243.257,193.866 248.5,198.5C 234.094,198.949 219.761,198.449 205.5,197C 195.859,192.871 190.193,185.705 188.5,175.5C 188.5,168.833 188.5,162.167 188.5,155.5 Z"/></g>
<g><path style="opacity:1" fill="#cbcbcb" d="M 169.5,139.5 C 170.483,143.298 170.817,147.298 170.5,151.5C 176.138,150.78 181.804,150.447 187.5,150.5C 187.5,158.167 187.5,165.833 187.5,173.5C 145.985,176.067 104.652,179.067 63.5,182.5C 56.874,181.869 52.2073,178.536 49.5,172.5C 49.9175,171.778 50.5842,171.278 51.5,171C 80.682,169.2 109.682,167.034 138.5,164.5C 145.412,165.462 152.412,165.795 159.5,165.5C 164.425,164.904 167.425,162.237 168.5,157.5C 169.49,151.69 169.823,145.69 169.5,139.5 Z"/></g>
<g><path style="opacity:1" fill="#d6d6d6" d="M 45.5,161.5 C 44.8333,162.167 44.1667,162.833 43.5,163.5C 42.8333,163.5 42.5,163.167 42.5,162.5C 43.209,161.596 44.209,161.263 45.5,161.5 Z"/></g>
<g><path style="opacity:1" fill="#5c5c5c" d="M 36.5,157.5 C 39.7444,157.749 41.7444,159.416 42.5,162.5C 42.5,163.167 42.8333,163.5 43.5,163.5C 43.5,163.833 43.5,164.167 43.5,164.5C 43.5,165.833 43.5,167.167 43.5,168.5C 38.9677,168.818 34.6344,168.485 30.5,167.5C 30.6036,165.297 31.2702,163.297 32.5,161.5C 33.3382,161.158 33.6716,160.492 33.5,159.5C 34.5,158.833 35.5,158.167 36.5,157.5 Z"/></g>
<g><path style="opacity:1" fill="#6c6c6c" d="M 43.5,164.5 C 45.5751,168.474 46.5751,172.808 46.5,177.5C 46.8588,179.766 46.1922,181.599 44.5,183C 39.1771,183.499 33.8437,183.666 28.5,183.5C 28.5,181.167 28.5,178.833 28.5,176.5C 28.4203,173.219 29.087,170.219 30.5,167.5C 34.6344,168.485 38.9677,168.818 43.5,168.5C 43.5,167.167 43.5,165.833 43.5,164.5 Z"/></g>
<g><path style="opacity:1" fill="#c1c1c1" d="M 187.5,173.5 C 187.328,174.492 187.662,175.158 188.5,175.5C 190.193,185.705 195.859,192.871 205.5,197C 219.761,198.449 234.094,198.949 248.5,198.5C 253.5,198.5 258.5,198.5 263.5,198.5C 263.818,203.032 263.485,207.366 262.5,211.5C 262.5,208.833 262.5,206.167 262.5,203.5C 201.268,199.002 139.935,197.335 78.5,198.5C 78.5,199.5 78.5,200.5 78.5,201.5C 75.8709,196.128 73.7043,190.461 72,184.5C 69.0614,183.872 66.2281,183.205 63.5,182.5C 104.652,179.067 145.985,176.067 187.5,173.5 Z"/></g>
<g><path style="opacity:1" fill="#7f7f7f" d="M 28.5,176.5 C 28.5,178.833 28.5,181.167 28.5,183.5C 33.8437,183.666 39.1771,183.499 44.5,183C 46.1922,181.599 46.8588,179.766 46.5,177.5C 47.9301,182.386 48.2634,187.386 47.5,192.5C 40.8333,192.5 34.1667,192.5 27.5,192.5C 26.5202,187.031 26.8535,181.697 28.5,176.5 Z"/></g>
<g><path style="opacity:1" fill="#8b8b8b" d="M 27.5,192.5 C 34.1667,192.5 40.8333,192.5 47.5,192.5C 46.0505,197.246 42.7172,199.579 37.5,199.5C 32.4468,199.425 29.1135,197.091 27.5,192.5 Z"/></g>
<g><path style="opacity:1" fill="#b8b8b8" d="M 262.5,211.5 C 262.784,213.415 262.451,215.081 261.5,216.5C 257.273,214.72 252.606,213.886 247.5,214C 194.332,210.854 141.165,207.687 88,204.5C 85.0706,204.525 82.5706,205.191 80.5,206.5C 79.4625,205.07 78.7959,203.403 78.5,201.5C 78.5,200.5 78.5,199.5 78.5,198.5C 139.935,197.335 201.268,199.002 262.5,203.5C 262.5,206.167 262.5,208.833 262.5,211.5 Z"/></g>
<g><path style="opacity:1" fill="#b2b2b2" d="M 261.5,216.5 C 260.54,221.086 258.54,225.086 255.5,228.5C 254.77,226.955 253.437,226.122 251.5,226C 198.499,222.853 145.499,219.686 92.5,216.5C 89.6445,216.503 86.9779,216.836 84.5,217.5C 82.3987,214.203 81.0653,210.537 80.5,206.5C 82.5706,205.191 85.0706,204.525 88,204.5C 141.165,207.687 194.332,210.854 247.5,214C 252.606,213.886 257.273,214.72 261.5,216.5 Z"/></g>
<g><path style="opacity:1" fill="#acacac" d="M 255.5,228.5 C 253.108,233.225 249.441,236.558 244.5,238.5C 243.048,237.698 241.382,237.198 239.5,237C 189.512,233.873 139.512,231.04 89.5,228.5C 89.5,229.5 89.5,230.5 89.5,231.5C 87.313,227.105 85.6463,222.438 84.5,217.5C 86.9779,216.836 89.6445,216.503 92.5,216.5C 145.499,219.686 198.499,222.853 251.5,226C 253.437,226.122 254.77,226.955 255.5,228.5 Z"/></g>
<g><path style="opacity:1" fill="#a5a5a5" d="M 244.5,238.5 C 235.086,244.276 224.752,247.443 213.5,248C 178.5,248.667 143.5,248.667 108.5,248C 99.1943,245.857 92.861,240.357 89.5,231.5C 89.5,230.5 89.5,229.5 89.5,228.5C 139.512,231.04 189.512,233.873 239.5,237C 241.382,237.198 243.048,237.698 244.5,238.5 Z"/></g>
</svg>
